TITLE ""
FILE "2Q_t_0588-0600.mp3" MP3
  TRACK 01 AUDIO
    TITLE "2Q_t_0588-0600_01"
    INDEX 01 00:00:00
  TRACK 02 AUDIO
    TITLE "2Q_t_0588-0600_02"
    INDEX 01 00:00:10
  TRACK 03 AUDIO
    TITLE "2Q_t_0588-0600_03"
    INDEX 01 00:01:16
  TRACK 04 AUDIO
    TITLE "2Q_t_0588-0600_04"
    INDEX 01 00:01:61
  TRACK 05 AUDIO
    TITLE "2Q_t_0588-0600_05"
    INDEX 01 00:04:10
  TRACK 06 AUDIO
    TITLE "2Q_t_0588-0600_06"
    INDEX 01 00:04:55
  TRACK 07 AUDIO
    TITLE "2Q_t_0588-0600_07"
    INDEX 01 00:05:64
  TRACK 08 AUDIO
    TITLE "2Q_t_0588-0600_08"
    INDEX 01 00:06:32
  TRACK 09 AUDIO
    TITLE "2Q_t_0588-0600_09"
    INDEX 01 00:07:61
  TRACK 10 AUDIO
    TITLE "2Q_t_0588-0600_10"
    INDEX 01 00:08:35
  TRACK 11 AUDIO
    TITLE "2Q_t_0588-0600_11"
    INDEX 01 00:10:56
  TRACK 12 AUDIO
    TITLE "2Q_t_0588-0600_12"
    INDEX 01 00:11:24
  TRACK 13 AUDIO
    TITLE "2Q_t_0588-0600_13"
    INDEX 01 00:12:49
  TRACK 14 AUDIO
    TITLE "2Q_t_0588-0600_14"
    INDEX 01 00:13:23
  TRACK 15 AUDIO
    TITLE "2Q_t_0588-0600_15"
    INDEX 01 00:15:59
  TRACK 16 AUDIO
    TITLE "2Q_t_0588-0600_16"
    INDEX 01 00:16:29
  TRACK 17 AUDIO
    TITLE "2Q_t_0588-0600_17"
    INDEX 01 00:17:48
  TRACK 18 AUDIO
    TITLE "2Q_t_0588-0600_18"
    INDEX 01 00:18:22
  TRACK 19 AUDIO
    TITLE "2Q_t_0588-0600_19"
    INDEX 01 00:20:46
  TRACK 20 AUDIO
    TITLE "2Q_t_0588-0600_20"
    INDEX 01 00:21:20
  TRACK 21 AUDIO
    TITLE "2Q_t_0588-0600_21"
    INDEX 01 00:22:41
  TRACK 22 AUDIO
    TITLE "2Q_t_0588-0600_22"
    INDEX 01 00:23:21
  TRACK 23 AUDIO
    TITLE "2Q_t_0588-0600_23"
    INDEX 01 00:25:53
  TRACK 24 AUDIO
    TITLE "2Q_t_0588-0600_24"
    INDEX 01 00:26:23
  TRACK 25 AUDIO
    TITLE "2Q_t_0588-0600_25"
    INDEX 01 00:27:64
  TRACK 26 AUDIO
    TITLE "2Q_t_0588-0600_26"
    INDEX 01 00:28:36
  TRACK 27 AUDIO
    TITLE "2Q_t_0588-0600_27"
    INDEX 01 00:30:23
  TRACK 28 AUDIO
    TITLE "2Q_t_0588-0600_28"
    INDEX 01 00:30:68
  TRACK 29 AUDIO
    TITLE "2Q_t_0588-0600_29"
    INDEX 01 00:32:20
  TRACK 30 AUDIO
    TITLE "2Q_t_0588-0600_30"
    INDEX 01 00:32:73
  TRACK 31 AUDIO
    TITLE "2Q_t_0588-0600_31"
    INDEX 01 00:35:26
  TRACK 32 AUDIO
    TITLE "2Q_t_0588-0600_32"
    INDEX 01 00:35:69
  TRACK 33 AUDIO
    TITLE "2Q_t_0588-0600_33"
    INDEX 01 00:37:37
  TRACK 34 AUDIO
    TITLE "2Q_t_0588-0600_34"
    INDEX 01 00:38:07
  TRACK 35 AUDIO
    TITLE "2Q_t_0588-0600_35"
    INDEX 01 00:39:42
  TRACK 36 AUDIO
    TITLE "2Q_t_0588-0600_36"
    INDEX 01 00:40:12
  TRACK 37 AUDIO
    TITLE "2Q_t_0588-0600_37"
    INDEX 01 00:41:29
  TRACK 38 AUDIO
    TITLE "2Q_t_0588-0600_38"
    INDEX 01 00:42:05
  TRACK 39 AUDIO
    TITLE "2Q_t_0588-0600_39"
    INDEX 01 00:44:43
  TRACK 40 AUDIO
    TITLE "2Q_t_0588-0600_40"
    INDEX 01 00:45:13
  TRACK 41 AUDIO
    TITLE "2Q_t_0588-0600_41"
    INDEX 01 00:46:48
  TRACK 42 AUDIO
    TITLE "2Q_t_0588-0600_42"
    INDEX 01 00:47:22
  TRACK 43 AUDIO
    TITLE "2Q_t_0588-0600_43"
    INDEX 01 00:49:56
  TRACK 44 AUDIO
    TITLE "2Q_t_0588-0600_44"
    INDEX 01 00:50:24
  TRACK 45 AUDIO
    TITLE "2Q_t_0588-0600_45"
    INDEX 01 00:51:39
  TRACK 46 AUDIO
    TITLE "2Q_t_0588-0600_46"
    INDEX 01 00:52:15
  TRACK 47 AUDIO
    TITLE "2Q_t_0588-0600_47"
    INDEX 01 00:54:53
  TRACK 48 AUDIO
    TITLE "2Q_t_0588-0600_48"
    INDEX 01 00:55:23
  TRACK 49 AUDIO
    TITLE "2Q_t_0588-0600_49"
    INDEX 01 00:56:40
  TRACK 50 AUDIO
    TITLE "2Q_t_0588-0600_50"
    INDEX 01 00:57:08
  TRACK 51 AUDIO
    TITLE "2Q_t_0588-0600_51"
    INDEX 01 00:58:08
  TRACK 52 AUDIO
    TITLE "2Q_t_0588-0600_52"
    INDEX 01 00:58:67
  TRACK 53 AUDIO
    TITLE "2Q_t_0588-0600_53"
    INDEX 01 01:00:63
  TRACK 54 AUDIO
    TITLE "2Q_t_0588-0600_54"
    INDEX 01 01:01:33
  TRACK 55 AUDIO
    TITLE "2Q_t_0588-0600_55"
    INDEX 01 01:02:45
  TRACK 56 AUDIO
    TITLE "2Q_t_0588-0600_56"
    INDEX 01 01:03:21
  TRACK 57 AUDIO
    TITLE "2Q_t_0588-0600_57"
    INDEX 01 01:04:73
